<svg width="26" height="26" viewBox="0 0 26 26" fill="none" xmlns="http://www.w3.org/2000/svg">
<path d="M14.1311 0.668898C13.8311 0.368944 13.4242 0.200439 12.9999 0.200439C12.5757 0.200439 12.1688 0.368944 11.8687 0.668898L0.668743 11.8689C0.37729 12.1707 0.21602 12.5748 0.219665 12.9943C0.22331 13.4139 0.391581 13.8152 0.688234 14.1118C0.984887 14.4085 1.38619 14.5767 1.8057 14.5804C2.22522 14.584 2.62938 14.4227 2.93114 14.1313L3.39994 13.6625V24.2001C3.39994 24.6244 3.56851 25.0314 3.86857 25.3315C4.16863 25.6315 4.5756 25.8001 4.99994 25.8001H8.19994C8.62429 25.8001 9.03126 25.6315 9.33131 25.3315C9.63137 25.0314 9.79994 24.6244 9.79994 24.2001V21.0001C9.79994 20.5758 9.96851 20.1688 10.2686 19.8687C10.5686 19.5687 10.9756 19.4001 11.3999 19.4001H14.5999C15.0243 19.4001 15.4313 19.5687 15.7313 19.8687C16.0314 20.1688 16.1999 20.5758 16.1999 21.0001V24.2001C16.1999 24.6244 16.3685 25.0314 16.6686 25.3315C16.9686 25.6315 17.3756 25.8001 17.7999 25.8001H20.9999C21.4243 25.8001 21.8313 25.6315 22.1313 25.3315C22.4314 25.0314 22.5999 24.6244 22.5999 24.2001V13.6625L23.0687 14.1313C23.3705 14.4227 23.7747 14.584 24.1942 14.5804C24.6137 14.5767 25.015 14.4085 25.3117 14.1118C25.6083 13.8152 25.7766 13.4139 25.7802 12.9943C25.7839 12.5748 25.6226 12.1707 25.3311 11.8689L14.1311 0.668898V0.668898Z" fill="white"/>
</svg>
